<svg xmlns="http://www.w3.org/2000/svg" viewBox="0 -0.5 230 62" shape-rendering="crispEdges"><path stroke="#b6d7ed" d="M46 10h3m-22 1h9m7 0h4m2 0h3m21 0h4m54 0h6M24 12h4m6 0h3m5 0h1m8 0h3m17 0h2m4 0h1m52 0h1m6 0h1m16 0h3m11 0h3M20 13h4m12 0h7m10 0h3m14 0h1m7 0h1m2 0h2m44 0h3m7 0h2m14 0h2m2 0h1m9 0h2m1 0h4m16 0h3M17 14h3m35 0h1m14 0h1m8 0h2m2 0h1m24 0h6m5 0h9m10 0h3m10 0h3m4 0h2m7 0h1m6 0h4m5 0h7m3 0h1m7 0h9M17 15h1m38 0h1m12 0h1m13 0h1m16 0h8m5 0h2m1 0h4m20 0h3m7 0h1m8 0h2m5 0h1m11 0h1m1 0h4m9 0h1m2 0h6m8 0h2M15 16h2m39 0h1m11 0h1m15 0h4m11 0h2m13 0h2m26 0h4m3 0h2m10 0h1m3 0h1m13 0h1m14 0h3m14 0h1M14 17h2m40 0h1m9 0h2m20 0h1m10 0h1m62 0h4m45 0h1M14 18h1m41 0h1m8 0h1m23 0h1m8 0h1m36 0h1m-71 1h1m24 0h2m5 0h1m37 0h1m-73 1h2m26 0h1m5 0h1m36 0h1M34 21h2m26 0h1m29 0h2m39 0h1M30 22h6m12 0h2m12 0h1m30 0h4m33 0h4m18 0h2M26 23h10m9 0h5m7 0h1m4 0h1m33 0h1m31 0h7m7 0h4m6 0h3m18 0h1M23 24h5m3 0h6m7 0h6m7 0h1m21 0h1m32 0h4m3 0h2m7 0h2m4 0h1m6 0h4m7 0h4m16 0h5m29 0h2m2 0h1M23 25h3m6 0h5m7 0h5m9 0h1m20 0h2m23 0h17m7 0h1m5 0h1m6 0h3m7 0h6m14 0h8m7 0h5m11 0h4m2 0h1m1 0h1M32 26h5m22 0h4m17 0h1m22 0h18m6 0h1m6 0h1m16 0h6m14 0h3m3 0h2m7 0h1m2 0h3m1 0h2m7 0h2m5 0h1M32 27h5m19 0h1m46 0h14m3 0h1m6 0h1m23 0h7m13 0h1m6 0h1m7 0h1m5 0h1m1 0h1m8 0h1m5 0h1M32 28h6m17 0h1m19 0h2m16 0h1m9 0h3m5 0h4m5 0h1m6 0h1m24 0h7m11 0h2m6 0h1m14 0h2m14 0h1M32 29h6m16 0h2m18 0h4m11 0h6m18 0h2m38 0h7m10 0h1m22 0h2M31 30h3m2 0h2m16 0h2m17 0h6m7 0h10m18 0h1m39 0h6m34 0h1M30 31h3m3 0h2m17 0h1m1 0h1m16 0h4m9 0h5m2 0h2m18 0h2m39 0h5m34 0h1M26 32h7m4 0h1m17 0h3m17 0h2m10 0h4m4 0h2m18 0h1m40 0h4m34 0h1M24 33h7m1 0h1m4 0h1m18 0h2m24 0h1m5 0h3m4 0h3m17 0h1m26 0h7m7 0h4m33 0h2M23 34h7m2 0h1m4 0h1m7 0h3m8 0h2m5 0h2m5 0h1m10 0h3m5 0h2m4 0h4m16 0h1m25 0h9m6 0h3m34 0h2M23 35h7m14 0h4m8 0h9m4 0h3m8 0h4m6 0h1m4 0h12m8 0h1m25 0h9m6 0h3m35 0h1m7 0h2M23 36h7m14 0h5m8 0h7m5 0h4m8 0h4m5 0h1m3 0h1m4 0h8m8 0h1m25 0h8m7 0h2m9 0h1m26 0h1m7 0h2M23 37h3m3 0h1m14 0h5m8 0h2m2 0h3m4 0h4m11 0h4m3 0h1m10 0h5m9 0h1m25 0h8m7 0h2m9 0h1m26 0h1m9 0h1M23 38h2m4 0h1m14 0h2m2 0h1m8 0h1m4 0h1m5 0h3m13 0h4m1 0h2m23 0m2m25 0h7m8 0h1m9 0h1m27 0h1M24 39h1m19 0h1m4 0h1m7 0h1m4 0h1m4 0h3m15 0h5m24 0h2m39 0h2m8 0h1m28 0h1M24 40h1m18 0h2m4 0h1m7 0h1m4 0h1m2 0h4m5 0h1m4 0h2m5 0h3m24 0h2m40 0h1m9 0h1m28 0h1M24 41h1m18 0h1m13 0h1m5 0h6m4 0h3m3 0h3m4 0h1m1 0h1m24 0h1m40 0h2m8 0h1m19 0h1m9 0h1M43 42h1m20 0h1m2 0h1m4 0h4m3 0h4m2 0h2m1 0h1m23 0h2m8 0h1m5 0h1m24 0h3m8 0h1M50 43h1m13 0h1m2 0h1m3 0h2m2 0h1m4 0h5m3 0h1m8 0h1m11 0h3m11 0h1m3 0h1m10 0h1m12 0h6m6 0h2m18 0h1m11 0h1M42 44h1m25 0h4m3 0h1m4 0h2m1 0h2m3 0h1m10 0h12m13 0h3m12 0h2m9 0h3m2 0h2m5 0h2m15 0h4m12 0h1m3 0h5M36 45h1m5 0h1m28 0h1m3 0h1m4 0h1m3 0h1m16 0h3m6 0h1m14 0h2m13 0h3m6 0h3m4 0h8m16 0h2m14 0h3m4 0h2M24 46h1m13 0h4m9 0h1m4 0h1m14 0h1m4 0h1m2 0h2m20 0h2m7 0h1m14 0h1m15 0h1m8 0h2m8 0h3m17 0h2m14 0h2m6 0h1M17 47h1m6 0h1m14 0h3m10 0h4m20 0h5m21 0h1m22 0h1m15 0h1m8 0h2m9 0h2m17 0h1m16 0h1M18 48h1m20 0h2m12 0h2m23 0h2m22 0h1m47 0h1m10 0h1m18 0h1m16 0h1M19 49h3m18 0h1m12 0h1m24 0m70 0h1m10 0h1M19 50h3m18 0h1m38 0h1m-60 1h1m-1 1h1m-1 1h1"/><path stroke="#fff" d="M47 11h2m-21 1h6m9 0h8m22 0h4m54 0h6M24 13h12m7 0h10m18 0h7m52 0h7m18 0h2m12 0h1M20 14h8m6 0h12m5 0h4m16 0h3m2 0h3m2 0h2m45 0h3m4 0h3m16 0h4m10 0h6m16 0h3"/></svg>